<?xml version="1.0" standalone="no"?>
<!DOCTYPE svg PUBLIC "-//W3C//DTD SVG 20010904//EN"
 "http://www.w3.org/TR/2001/REC-SVG-20010904/DTD/svg10.dtd">
<svg version="1.0" xmlns="http://www.w3.org/2000/svg"
 width="96.000000pt" height="111.000000pt" viewBox="0 0 96.000000 111.000000"
 preserveAspectRatio="xMidYMid meet">

<g transform="translate(0.000000,111.000000) scale(0.100000,-0.100000)"
fill="#000000" stroke="none">
<path d="M410 1052 c-148 -62 -243 -116 -298 -171 -67 -68 -44 -137 45 -134 7
0 15 -7 18 -17 7 -23 -11 -70 -28 -70 -21 0 -47 -33 -47 -59 0 -34 16 -57 50
-71 30 -12 44 -38 15 -26 -19 7 -19 -11 0 -44 10 -19 11 -28 2 -39 -7 -8 -12
-30 -12 -49 0 -33 -2 -34 -38 -37 -24 -1 -37 2 -37 10 0 7 -7 18 -15 25 -8 7
-15 25 -15 41 0 43 -26 37 -27 -6 -1 -27 4 -38 20 -47 32 -16 38 -30 20 -50
-11 -12 -14 -28 -10 -54 8 -47 31 -72 75 -80 33 -6 115 -54 127 -75 4 -5 18
-9 33 -9 17 0 32 -8 40 -21 11 -17 20 -20 43 -15 16 3 29 2 29 -3 0 -16 50
-31 70 -21 13 7 21 7 25 0 7 -12 62 -13 69 -2 3 5 18 7 34 4 17 -2 33 2 40 11
7 8 21 13 31 10 16 -4 30 8 105 87 8 8 17 33 21 55 4 22 14 51 23 64 18 30 25
110 11 128 -8 8 -6 19 5 35 23 33 20 46 -9 40 -38 -7 -32 24 9 43 33 16 56 50
56 84 0 19 -29 51 -46 51 -5 0 -10 15 -9 32 0 29 5 35 47 55 40 19 48 28 54
60 14 76 -56 153 -191 210 -164 69 -262 85 -335 55z m29 -61 c-33 -33 -39 -84
-14 -117 8 -10 15 -22 15 -25 0 -3 -33 -12 -72 -19 -40 -7 -100 -21 -133 -31
-73 -23 -99 -24 -115 -4 -20 25 10 58 112 121 106 65 183 103 215 103 20 1 20
-1 -8 -28z m220 -1 c67 -20 167 -74 210 -113 46 -43 47 -92 2 -116 -14 -8 -37
-1 -102 33 -55 28 -104 46 -142 50 l-57 7 20 26 c24 30 26 67 6 106 -18 32
-20 32 63 7z m-87 -7 c45 -40 7 -123 -57 -123 -66 0 -98 63 -59 118 19 27 88
31 116 5z m34 -174 c87 -12 176 -42 196 -66 11 -14 10 -16 -12 -11 -14 4 -54
19 -90 34 -61 26 -74 28 -205 28 -130 1 -145 -2 -213 -28 -41 -15 -76 -26 -78
-23 -14 14 88 54 171 67 75 11 145 11 231 -1z m-56 -49 c31 -10 33 -9 -67 -14
-46 -2 -83 0 -83 4 0 17 108 24 150 10z m-250 -29 c0 -18 -62 -61 -87 -61 -36
0 -24 21 27 48 48 24 60 27 60 13z m70 -5 c0 -14 -36 -46 -52 -46 -14 0 -8 20
12 40 24 24 40 26 40 6z m250 4 c11 -6 24 -20 30 -31 11 -19 10 -19 -26 -4
-46 19 -48 21 -39 34 8 14 11 14 35 1z m120 -17 c50 -18 70 -30 70 -46 0 -16
-69 0 -106 25 -38 26 -56 55 -27 43 10 -4 38 -14 63 -22z m-176 -22 c19 -20
108 -47 124 -37 12 7 82 -21 82 -32 0 -4 -5 -13 -11 -19 -8 -8 -7 -17 5 -34 9
-13 16 -37 16 -52 l0 -30 -44 41 c-23 22 -53 43 -66 47 -16 5 -19 10 -11 18
19 19 12 27 -18 21 -22 -5 -32 -1 -45 17 -11 17 -19 20 -27 12 -13 -13 4 -53
22 -53 6 0 -12 -16 -41 -35 -57 -39 -81 -43 -101 -19 -18 22 1 49 35 49 33 -1
34 22 1 37 -19 9 -29 8 -50 -6 -14 -9 -25 -21 -25 -26 0 -12 -11 -12 -29 -1
-12 8 -12 12 -2 25 20 23 4 39 -21 21 -12 -8 -32 -12 -44 -9 -23 6 -42 -10
-25 -21 6 -3 -8 -24 -30 -47 -47 -49 -63 -42 -31 13 12 21 18 39 12 39 -5 0
-10 6 -10 14 0 16 34 31 65 28 11 -1 43 11 70 27 41 25 61 30 116 30 53 1 69
-3 83 -18z m-368 -72 c5 -9 -1 -10 -22 -5 -27 7 -28 7 -11 -12 19 -20 23 -42
8 -42 -6 0 -17 10 -25 22 -11 16 -13 25 -4 35 13 16 44 17 54 2z m662 -30 c2
-15 -5 -32 -17 -43 -20 -18 -21 -18 -27 -1 -5 11 -1 22 9 30 23 17 21 28 -3
22 -20 -5 -26 3 -13 17 16 16 48 1 51 -25z m-475 -42 c18 -8 38 -21 46 -30 20
-25 89 -22 118 4 14 14 40 24 70 26 45 5 51 2 96 -37 27 -24 45 -46 40 -49 -5
-3 -10 -16 -10 -29 -2 -19 2 -22 20 -17 12 4 17 3 11 -2 -6 -4 -13 -15 -16
-24 -4 -10 -27 -22 -55 -28 -59 -14 -93 -4 -140 41 -28 27 -33 29 -39 14 -16
-42 84 -93 161 -83 25 4 58 13 74 21 31 17 47 11 29 -11 -8 -10 -7 -17 7 -27
23 -17 10 -39 -17 -30 -18 5 -20 3 -15 -15 3 -14 0 -21 -9 -21 -21 0 -17 -13
8 -29 21 -13 21 -14 4 -27 -10 -7 -15 -17 -11 -23 3 -7 -2 -11 -14 -11 -14 0
-19 -5 -15 -15 4 -9 0 -15 -9 -15 -8 0 -18 -11 -21 -25 -6 -24 -36 -36 -36
-15 0 19 -28 10 -33 -10 -6 -24 -42 -27 -51 -5 -7 19 -26 19 -26 0 0 -23 -41
-19 -47 5 -3 11 -9 20 -13 20 -5 0 -12 -9 -15 -20 -9 -29 -43 -25 -57 8 -17
39 -18 39 -37 13 -21 -28 -41 -21 -41 15 0 21 -3 23 -19 14 -25 -13 -48 -4
-54 21 -4 15 -11 18 -30 14 -48 -12 -36 13 27 60 54 39 184 171 194 195 2 5
-14 2 -35 -6 -49 -17 -140 -17 -178 1 -16 7 -24 14 -16 14 8 1 11 4 8 8 -4 3
1 12 11 19 11 9 13 13 4 14 -7 0 -10 5 -7 10 3 6 1 10 -6 10 -14 0 10 24 51
53 30 21 50 21 93 4z m-149 -154 c4 -5 21 -13 38 -18 l30 -11 -42 -28 c-43
-28 -78 -31 -71 -5 2 8 3 23 3 34 -1 26 26 44 42 28z m136 -29 c0 -3 -11 -19
-24 -34 -17 -21 -26 -26 -35 -17 -17 17 -14 25 17 41 29 17 42 19 42 10z
m-240 -59 c-7 -8 -24 -15 -39 -15 -25 1 -25 1 -7 15 11 8 29 15 39 15 16 0 17
-3 7 -15z m170 -27 c0 -15 -28 -8 -34 8 -10 26 5 39 21 19 7 -11 13 -22 13
-27z m-130 -3 c15 -13 22 -14 44 -3 23 10 29 9 37 -3 14 -22 12 -24 -33 -47
-70 -34 -93 -37 -117 -13 -12 12 -21 27 -21 34 0 9 41 37 69 46 3 0 12 -6 21
-14z"/>
<path d="M494 976 c-3 -8 -1 -23 5 -35 14 -25 14 -54 1 -46 -6 4 -8 10 -5 15
8 12 -27 22 -39 10 -5 -5 -8 -11 -5 -12 57 -36 63 -37 94 -20 16 9 32 18 34
20 3 1 -1 8 -8 15 -10 9 -15 8 -27 -7 -20 -28 -29 -12 -11 23 10 21 12 32 4
40 -15 15 -37 14 -43 -3z m36 0 c0 -3 -4 -8 -10 -11 -5 -3 -10 -1 -10 4 0 6 5
11 10 11 6 0 10 -2 10 -4z"/>
<path d="M64 464 c3 -9 6 -29 6 -44 0 -19 7 -33 21 -40 24 -13 38 -5 21 12 -7
7 -12 24 -12 38 0 26 -16 50 -33 50 -5 0 -6 -7 -3 -16z"/>
</g>
</svg>
